<svg width="20" height="20" viewBox="0 0 20 20" fill="none" xmlns="http://www.w3.org/2000/svg">
<g clip-path="url(#clip0_120_75)">
<path d="M10 0.324219C7.28625 0.324219 6.945 0.336351 5.87875 0.382455C4.8125 0.430986 4.08625 0.593563 3.45 0.83379C2.78262 1.07744 2.17811 1.45962 1.67875 1.95363C1.1701 2.43857 0.776384 3.02524 0.525 3.67283C0.2775 4.28917 0.10875 4.99529 0.06 6.02656C0.0125 7.0639 0 7.39391 0 10.0315C0 12.6668 0.0125 12.9968 0.06 14.0317C0.11 15.0654 0.2775 15.7703 0.525 16.3878C0.78125 17.026 1.1225 17.5671 1.67875 18.107C2.23375 18.6469 2.79125 18.9794 3.44875 19.2269C4.08625 19.4671 4.81125 19.6309 5.87625 19.6782C6.94375 19.7243 7.28375 19.7365 10 19.7365C12.7163 19.7365 13.055 19.7243 14.1225 19.6782C15.1863 19.6297 15.915 19.4671 16.5513 19.2269C17.2182 18.9831 17.8223 18.6009 18.3212 18.107C18.8775 17.5671 19.2188 17.026 19.475 16.3878C19.7213 15.7703 19.89 15.0654 19.94 14.0317C19.9875 12.9968 20 12.6668 20 10.0303C20 7.39391 19.9875 7.0639 19.94 6.02778C19.89 4.99529 19.7213 4.28917 19.475 3.67283C19.2237 3.02522 18.8299 2.43855 18.3212 1.95363C17.822 1.45944 17.2175 1.07723 16.55 0.83379C15.9125 0.593563 15.185 0.429773 14.1213 0.382455C13.0538 0.336351 12.715 0.324219 9.9975 0.324219H10.0013H10ZM9.10375 2.07375H10.0013C12.6713 2.07375 12.9875 2.08224 14.0413 2.12956C15.0162 2.17202 15.5462 2.33096 15.8988 2.4632C16.365 2.63913 16.6987 2.85024 17.0487 3.18995C17.3988 3.52966 17.615 3.85239 17.7963 4.30615C17.9338 4.64708 18.0963 5.1615 18.14 6.10785C18.1887 7.13063 18.1987 7.43759 18.1987 10.0279C18.1987 12.6182 18.1887 12.9264 18.14 13.9492C18.0963 14.8955 17.9325 15.4087 17.7963 15.7509C17.6359 16.1723 17.38 16.5534 17.0475 16.8659C16.6975 17.2056 16.365 17.4155 15.8975 17.5914C15.5475 17.7249 15.0175 17.8826 14.0413 17.9263C12.9875 17.9724 12.6713 17.9833 10.0013 17.9833C7.33125 17.9833 7.01375 17.9724 5.96 17.9263C4.985 17.8826 4.45625 17.7249 4.10375 17.5914C3.66937 17.436 3.27641 17.1881 2.95375 16.8659C2.62094 16.5529 2.36465 16.1715 2.20375 15.7497C2.0675 15.4087 1.90375 14.8943 1.86 13.948C1.8125 12.9252 1.8025 12.6182 1.8025 10.0255C1.8025 7.43395 1.8125 7.12821 1.86 6.10542C1.905 5.15908 2.0675 4.64465 2.205 4.30251C2.38625 3.84997 2.60375 3.52602 2.95375 3.18631C3.30375 2.8466 3.63625 2.6367 4.10375 2.46078C4.45625 2.32732 4.985 2.16959 5.96 2.12592C6.8825 2.08467 7.24 2.07253 9.10375 2.07132V2.07375ZM15.3387 3.68496C15.1812 3.68496 15.0251 3.71509 14.8795 3.77362C14.7339 3.83216 14.6017 3.91795 14.4902 4.0261C14.3788 4.13426 14.2904 4.26266 14.2301 4.40397C14.1698 4.54528 14.1388 4.69674 14.1388 4.8497C14.1388 5.00265 14.1698 5.15411 14.2301 5.29542C14.2904 5.43673 14.3788 5.56513 14.4902 5.67329C14.6017 5.78144 14.7339 5.86724 14.8795 5.92577C15.0251 5.9843 15.1812 6.01443 15.3387 6.01443C15.657 6.01443 15.9622 5.89172 16.1873 5.67329C16.4123 5.45486 16.5387 5.1586 16.5387 4.8497C16.5387 4.54079 16.4123 4.24453 16.1873 4.0261C15.9622 3.80767 15.657 3.68496 15.3387 3.68496ZM10.0013 5.04624C9.32009 5.03593 8.64362 5.15724 8.01122 5.40312C7.37883 5.64899 6.80314 6.01452 6.31769 6.47841C5.83223 6.94231 5.4467 7.4953 5.18355 8.1052C4.9204 8.7151 4.78488 9.36972 4.78488 10.0309C4.78488 10.6922 4.9204 11.3468 5.18355 11.9567C5.4467 12.5666 5.83223 13.1196 6.31769 13.5835C6.80314 14.0474 7.37883 14.4129 8.01122 14.6588C8.64362 14.9046 9.32009 15.026 10.0013 15.0156C11.3494 14.9952 12.6353 14.4611 13.5812 13.5285C14.5272 12.5959 15.0574 11.3397 15.0574 10.0309C15.0574 8.72223 14.5272 7.46599 13.5812 6.5334C12.6353 5.60081 11.3494 5.06666 10.0013 5.04624ZM10.0013 6.79456C10.8854 6.79456 11.7334 7.13547 12.3586 7.7423C12.9838 8.34912 13.335 9.17215 13.335 10.0303C13.335 10.8885 12.9838 11.7115 12.3586 12.3184C11.7334 12.9252 10.8854 13.2661 10.0013 13.2661C9.11709 13.2661 8.26913 12.9252 7.64393 12.3184C7.01873 11.7115 6.6675 10.8885 6.6675 10.0303C6.6675 9.17215 7.01873 8.34912 7.64393 7.7423C8.26913 7.13547 9.11709 6.79456 10.0013 6.79456Z" fill="#A5886D"/>
</g>
<defs>
<clipPath id="clip0_120_75">
<rect width="20" height="19.4122" fill="white" transform="translate(0 0.324219)"/>
</clipPath>
</defs>
</svg>
