<svg width="22" height="20" viewBox="0 0 22 20" fill="none" xmlns="http://www.w3.org/2000/svg">
<path d="M6.91075 18.5526C15.213 18.5526 19.7546 12.4826 19.7546 7.22797C19.7546 7.05811 19.7546 6.88583 19.7464 6.71597C20.6306 6.15118 21.3937 5.45193 22 4.65099C21.1741 4.97233 20.2988 5.18411 19.4026 5.27946C20.3466 4.78158 21.0536 3.99822 21.3923 3.07496C20.5054 3.53858 19.5346 3.86404 18.5226 4.03708C17.8423 3.39772 16.9419 2.97416 15.9611 2.83201C14.9803 2.68987 13.9737 2.83707 13.0973 3.25081C12.2209 3.66455 11.5236 4.32175 11.1134 5.1206C10.7031 5.91945 10.6029 6.81537 10.8281 7.6696C9.03339 7.59019 7.27762 7.17879 5.67468 6.46208C4.07175 5.74538 2.65744 4.73937 1.5235 3.50931C0.947843 4.3866 0.772164 5.42433 1.03214 6.41176C1.29211 7.3992 1.96825 8.26231 2.92325 8.82584C2.20762 8.80438 1.50772 8.63482 0.88 8.33082V8.38542C0.881234 9.30445 1.24205 10.1949 1.90145 10.9063C2.56086 11.6177 3.4784 12.1063 4.499 12.2897C4.11161 12.3839 3.71144 12.4308 3.30963 12.4292C3.02635 12.43 2.74365 12.4068 2.46537 12.3601C2.75383 13.1512 3.3155 13.8429 4.07171 14.3383C4.82793 14.8337 5.74081 15.1079 6.6825 15.1227C5.08276 16.2314 3.10668 16.8327 1.0725 16.8297C0.714066 16.8311 0.355882 16.8128 0 16.7751C2.06458 17.9366 4.46228 18.5532 6.91075 18.5526Z" fill="#A5886D"/>
</svg>
