<svg width="20" height="20" viewBox="0 0 20 20" fill="none" xmlns="http://www.w3.org/2000/svg">
<g clip-path="url(#clip0_120_77)">
<path d="M10.0637 2.74951H10.175C11.2025 2.75315 16.4088 2.78955 17.8125 3.15596C18.2369 3.26778 18.6236 3.48575 18.9339 3.78808C19.2443 4.0904 19.4675 4.4665 19.5812 4.87879C19.7075 5.33983 19.7962 5.9501 19.8563 6.57979L19.8688 6.70597L19.8962 7.02142L19.9062 7.1476C19.9875 8.25652 19.9975 9.29507 19.9987 9.52195V9.61295C19.9975 9.84832 19.9862 10.9572 19.8962 12.1123L19.8862 12.2397L19.875 12.3658C19.8125 13.0598 19.72 13.749 19.5812 14.2561C19.4679 14.6686 19.2448 15.0448 18.9344 15.3472C18.6239 15.6496 18.237 15.8675 17.8125 15.9789C16.3625 16.3575 10.8512 16.3842 10.0875 16.3854H9.91C9.52375 16.3854 7.92625 16.3781 6.25125 16.3223L6.03875 16.315L5.93 16.3102L5.71625 16.3017L5.5025 16.2932C4.115 16.2337 2.79375 16.1379 2.185 15.9777C1.76061 15.8664 1.37383 15.6487 1.06341 15.3465C0.752979 15.0444 0.529809 14.6683 0.41625 14.2561C0.2775 13.7502 0.185 13.0598 0.1225 12.3658L0.1125 12.2385L0.1025 12.1123C0.0408095 11.2902 0.00662483 10.4663 0 9.64207L0 9.49284C0.0025 9.23198 0.0125 8.33053 0.08 7.33565L0.08875 7.21069L0.0925 7.1476L0.1025 7.02142L0.13 6.70597L0.1425 6.57979C0.2025 5.9501 0.29125 5.33862 0.4175 4.87879C0.530867 4.46634 0.753953 4.09006 1.06439 3.78768C1.37483 3.4853 1.76171 3.26745 2.18625 3.15596C2.795 2.99823 4.11625 2.90117 5.50375 2.84051L5.71625 2.83201L5.93125 2.82473L6.03875 2.82109L6.2525 2.8126C7.44213 2.77544 8.63226 2.75482 9.8225 2.75073H10.0637V2.74951ZM8 6.64409V12.4896L13.1962 9.56806L8 6.64409Z" fill="#A5886D"/>
</g>
<defs>
<clipPath id="clip0_120_77">
<rect width="20" height="19.4122" fill="white" transform="translate(0 0.324219)"/>
</clipPath>
</defs>
</svg>
