<svg width="12" height="13" viewBox="0 0 12 13" fill="none" xmlns="http://www.w3.org/2000/svg">
<path fill-rule="evenodd" clip-rule="evenodd" d="M6.39632 0.495791C6.47506 0.384483 6.57541 0.294519 6.68984 0.232663C6.80428 0.170808 6.9298 0.138672 7.05699 0.138672C7.18417 0.138672 7.3097 0.170808 7.42413 0.232663C7.53856 0.294519 7.63892 0.384483 7.71765 0.495791L11.4209 5.72579C11.5771 5.94637 11.662 6.21917 11.662 6.50017C11.662 6.78116 11.5771 7.05396 11.4209 7.27454L7.71765 12.5045C7.63892 12.6158 7.53856 12.7058 7.42413 12.7677C7.3097 12.8295 7.18417 12.8617 7.05699 12.8617C6.9298 12.8617 6.80428 12.8295 6.68984 12.7677C6.57541 12.7058 6.47506 12.6158 6.39632 12.5045L2.69368 7.27517C2.53747 7.05459 2.45251 6.78179 2.45251 6.50079C2.45251 6.2198 2.53747 5.947 2.69368 5.72642L6.39688 0.496416L6.39632 0.495791ZM7.05699 1.58079L3.57363 6.50017L7.05699 11.4195L10.5403 6.50017L7.05699 1.58079Z" fill="#A5886D"/>
<path fill-rule="evenodd" clip-rule="evenodd" d="M4.39632 0.495791C4.47506 0.384483 4.57541 0.294519 4.68984 0.232663C4.80428 0.170808 4.9298 0.138672 5.05699 0.138672C5.18417 0.138672 5.3097 0.170808 5.42413 0.232663C5.53856 0.294519 5.63892 0.384483 5.71765 0.495791L9.42085 5.72579C9.57706 5.94637 9.66202 6.21917 9.66202 6.50017C9.66202 6.78116 9.57706 7.05396 9.42085 7.27454L5.71765 12.5045C5.63892 12.6158 5.53856 12.7058 5.42413 12.7677C5.3097 12.8295 5.18417 12.8617 5.05699 12.8617C4.9298 12.8617 4.80428 12.8295 4.68984 12.7677C4.57541 12.7058 4.47506 12.6158 4.39632 12.5045L0.693678 7.27517C0.537472 7.05459 0.452515 6.78179 0.452515 6.50079C0.452515 6.2198 0.537472 5.947 0.693678 5.72642L4.39688 0.496416L4.39632 0.495791ZM5.05699 1.58079L1.57363 6.50017L5.05699 11.4195L8.54034 6.50017L5.05699 1.58079Z" fill="#A5886D"/>
</svg>
